<?xml version="1.0" standalone="no"?>
<!DOCTYPE svg PUBLIC "-//W3C//DTD SVG 20010904//EN"
 "http://www.w3.org/TR/2001/REC-SVG-20010904/DTD/svg10.dtd">
<svg version="1.0" xmlns="http://www.w3.org/2000/svg"
 width="700.000000pt" height="700.000000pt" viewBox="0 0 700.000000 700.000000"
 preserveAspectRatio="xMidYMid meet">
<metadata>
Created by potrace 1.14, written by Peter Selinger 2001-2017
</metadata>
<g transform="translate(0.000000,700.000000) scale(0.100000,-0.100000)"
fill="#000000" stroke="none">
<path d="M895 6984 c-225 -40 -421 -143 -578 -301 -124 -126 -195 -237 -252
-396 -70 -197 -66 -10 -62 -2832 3 -2317 4 -2546 19 -2605 109 -432 414 -733
838 -828 69 -16 276 -17 2640 -17 2392 0 2570 1 2642 17 425 95 741 411 836
836 16 72 17 250 17 2642 0 2392 -1 2570 -17 2642 -81 364 -332 658 -668 785
-196 73 63 67 -2780 69 -2183 2 -2567 0 -2635 -12z m2385 -1024 c305 -22 557
-70 815 -155 374 -123 645 -279 884 -510 374 -361 567 -781 643 -1395 19 -157
16 -640 -5 -809 -60 -469 -199 -841 -434 -1159 -367 -497 -922 -786 -1683
-879 -312 -38 -940 -15 -1309 48 -329 56 -559 142 -675 254 -64 61 -96 110
-127 195 l-24 65 0 1960 0 1960 28 58 c48 96 164 177 332 230 103 32 283 72
412 92 298 44 844 66 1143 45z"/>
<path d="M2945 5013 c-33 -2 -133 -10 -221 -18 -89 -8 -169 -15 -178 -15 -15
0 -16 -119 -16 -1469 0 -1391 1 -1470 18 -1475 138 -41 624 -55 807 -22 285
51 513 170 700 367 264 277 377 650 362 1194 -13 485 -135 817 -396 1076 -182
181 -407 293 -676 338 -113 19 -294 30 -400 24z"/>
</g>
</svg>
