<svg width="311" height="48" viewBox="0 0 311 48" fill="none" xmlns="http://www.w3.org/2000/svg">
<path d="M310.236 36.72C310.236 39.9627 308.998 42.5013 306.524 44.336C304.092 46.1707 300.529 47.088 295.836 47.088C292.209 47.088 289.222 46.576 286.876 45.552C284.572 44.4853 283.42 42.8427 283.42 40.624C283.42 39.6 283.633 38.7253 284.06 38C284.486 37.2747 284.998 36.6987 285.596 36.272C286.833 36.9547 288.241 37.5733 289.82 38.128C291.441 38.64 293.297 38.896 295.388 38.896C298.118 38.896 299.484 38.192 299.484 36.784C299.484 36.1867 299.228 35.7173 298.716 35.376C298.204 35.0347 297.35 34.7573 296.156 34.544L294.236 34.16C290.566 33.4347 287.814 32.2827 285.98 30.704C284.145 29.1253 283.228 26.9067 283.228 24.048C283.228 20.848 284.529 18.352 287.132 16.56C289.734 14.768 293.126 13.872 297.308 13.872C299.398 13.872 301.297 14.0853 303.004 14.512C304.753 14.896 306.14 15.536 307.164 16.432C308.188 17.2853 308.7 18.3947 308.7 19.76C308.7 20.6987 308.508 21.5307 308.124 22.256C307.782 22.9813 307.334 23.5787 306.78 24.048C306.31 23.7493 305.564 23.4507 304.54 23.152C303.558 22.8533 302.492 22.5973 301.34 22.384C300.188 22.1707 299.164 22.064 298.268 22.064C296.86 22.064 295.772 22.2347 295.004 22.576C294.236 22.8747 293.852 23.3653 293.852 24.048C293.852 24.5173 294.065 24.9013 294.492 25.2C294.918 25.4987 295.729 25.776 296.924 26.032L298.908 26.48C303.004 27.4187 305.905 28.72 307.612 30.384C309.361 32.0053 310.236 34.1173 310.236 36.72Z" fill="#4D5462"/>
<path d="M280.016 36.72C280.016 39.9627 278.778 42.5013 276.304 44.336C273.872 46.1707 270.309 47.088 265.616 47.088C261.989 47.088 259.002 46.576 256.656 45.552C254.352 44.4853 253.2 42.8427 253.2 40.624C253.2 39.6 253.413 38.7253 253.84 38C254.266 37.2747 254.778 36.6987 255.376 36.272C256.613 36.9547 258.021 37.5733 259.6 38.128C261.221 38.64 263.077 38.896 265.168 38.896C267.898 38.896 269.264 38.192 269.264 36.784C269.264 36.1867 269.008 35.7173 268.496 35.376C267.984 35.0347 267.13 34.7573 265.936 34.544L264.016 34.16C260.346 33.4347 257.594 32.2827 255.76 30.704C253.925 29.1253 253.008 26.9067 253.008 24.048C253.008 20.848 254.309 18.352 256.912 16.56C259.514 14.768 262.906 13.872 267.088 13.872C269.178 13.872 271.077 14.0853 272.784 14.512C274.533 14.896 275.92 15.536 276.944 16.432C277.968 17.2853 278.48 18.3947 278.48 19.76C278.48 20.6987 278.288 21.5307 277.904 22.256C277.562 22.9813 277.114 23.5787 276.56 24.048C276.09 23.7493 275.344 23.4507 274.32 23.152C273.338 22.8533 272.272 22.5973 271.12 22.384C269.968 22.1707 268.944 22.064 268.048 22.064C266.64 22.064 265.552 22.2347 264.784 22.576C264.016 22.8747 263.632 23.3653 263.632 24.048C263.632 24.5173 263.845 24.9013 264.272 25.2C264.698 25.4987 265.509 25.776 266.704 26.032L268.688 26.48C272.784 27.4187 275.685 28.72 277.392 30.384C279.141 32.0053 280.016 34.1173 280.016 36.72Z" fill="#4D5462"/>
<path d="M225.178 35.312L224.794 28.144L239.578 25.712C239.493 24.8587 239.066 24.0053 238.298 23.152C237.53 22.2987 236.336 21.872 234.714 21.872C233.008 21.872 231.578 22.4267 230.426 23.536C229.317 24.6453 228.72 26.224 228.634 28.272L229.018 33.648C229.445 35.6107 230.405 36.976 231.898 37.744C233.434 38.512 235.141 38.896 237.018 38.896C238.81 38.896 240.517 38.6613 242.138 38.192C243.76 37.7227 245.061 37.2107 246.042 36.656C246.725 37.0827 247.301 37.68 247.77 38.448C248.24 39.216 248.474 40.0267 248.474 40.88C248.474 42.288 247.941 43.4613 246.874 44.4C245.85 45.296 244.421 45.9573 242.586 46.384C240.752 46.8107 238.64 47.024 236.25 47.024C232.922 47.024 229.914 46.4053 227.226 45.168C224.581 43.888 222.469 41.9893 220.89 39.472C219.354 36.9547 218.586 33.7973 218.586 30C218.586 27.184 219.034 24.752 219.93 22.704C220.869 20.656 222.106 18.992 223.642 17.712C225.178 16.432 226.885 15.4933 228.762 14.896C230.682 14.256 232.645 13.936 234.65 13.936C237.68 13.936 240.325 14.5333 242.586 15.728C244.848 16.88 246.618 18.48 247.898 20.528C249.178 22.5333 249.818 24.8587 249.818 27.504C249.818 28.9547 249.413 30.064 248.602 30.832C247.792 31.6 246.661 32.0907 245.21 32.304L225.178 35.312Z" fill="#4D5462"/>
<path d="M214.49 25.968V31.856H203.61V26.288C203.61 24.9653 203.205 24.0053 202.394 23.408C201.626 22.768 200.602 22.448 199.322 22.448C198.469 22.448 197.658 22.5547 196.89 22.768C196.165 22.9813 195.461 23.2587 194.778 23.6V31.856H183.898V22.128C183.898 20.976 184.133 20.0373 184.602 19.312C185.114 18.5867 185.797 17.9253 186.65 17.328C188.101 16.304 189.935 15.4933 192.154 14.896C194.373 14.256 196.805 13.936 199.45 13.936C204.271 13.936 207.983 15.0027 210.586 17.136C213.189 19.2267 214.49 22.1707 214.49 25.968ZM183.898 29.104H194.778V45.936C194.309 46.064 193.626 46.192 192.73 46.32C191.877 46.448 190.938 46.512 189.914 46.512C187.823 46.512 186.287 46.1493 185.306 45.424C184.367 44.6987 183.898 43.3547 183.898 41.392V29.104ZM203.61 29.104H214.49V45.936C214.021 46.064 213.338 46.192 212.442 46.32C211.589 46.448 210.65 46.512 209.626 46.512C207.535 46.512 205.999 46.1493 205.018 45.424C204.079 44.6987 203.61 43.3547 203.61 41.392V29.104Z" fill="#4D5462"/>
<path d="M159.869 29.104H170.621V35.312C170.621 36.3787 170.962 37.168 171.645 37.68C172.37 38.1493 173.373 38.384 174.653 38.384C175.293 38.384 175.954 38.3413 176.637 38.256C177.319 38.128 177.917 37.9787 178.429 37.808C178.813 38.2347 179.133 38.7467 179.389 39.344C179.687 39.9413 179.837 40.6453 179.837 41.456C179.837 43.0347 179.218 44.3573 177.981 45.424C176.786 46.448 174.653 46.96 171.581 46.96C167.826 46.96 164.925 46.1067 162.877 44.4C160.871 42.6933 159.869 39.92 159.869 36.08V29.104ZM166.909 23.92V15.6H179.005C179.261 16.0267 179.495 16.6027 179.709 17.328C179.965 18.0533 180.093 18.8427 180.093 19.696C180.093 21.1893 179.751 22.2773 179.069 22.96C178.429 23.6 177.554 23.92 176.445 23.92H166.909ZM170.621 30.64H159.869V7.66399C160.338 7.53599 160.999 7.40799 161.853 7.27999C162.749 7.10932 163.687 7.02399 164.669 7.02399C166.759 7.02399 168.274 7.38665 169.213 8.11199C170.151 8.83732 170.621 10.1813 170.621 12.144V30.64Z" fill="#4D5462"/>
<path d="M142.702 6.256C142.702 4.63467 143.257 3.26933 144.366 2.16C145.475 1.05067 146.905 0.496002 148.654 0.496002C150.403 0.496002 151.833 1.05067 152.942 2.16C154.051 3.26933 154.606 4.63467 154.606 6.256C154.606 7.83467 154.051 9.2 152.942 10.352C151.833 11.4613 150.403 12.016 148.654 12.016C146.905 12.016 145.475 11.4613 144.366 10.352C143.257 9.2 142.702 7.83467 142.702 6.256ZM143.214 29.104H154.094V45.936C153.625 46.064 152.942 46.192 152.046 46.32C151.193 46.448 150.254 46.512 149.23 46.512C147.139 46.512 145.603 46.1493 144.622 45.424C143.683 44.6987 143.214 43.3547 143.214 41.392V29.104ZM154.094 34.8H143.214V15.344C143.683 15.216 144.345 15.088 145.198 14.96C146.094 14.832 147.054 14.768 148.078 14.768C150.211 14.768 151.747 15.1307 152.686 15.856C153.625 16.5387 154.094 17.8827 154.094 19.888V34.8Z" fill="#4D5462"/>
<path d="M122.642 30H111.57V13.168C111.57 11.3333 112.103 9.88267 113.17 8.816C114.237 7.74934 115.687 7.216 117.522 7.216C118.546 7.216 119.527 7.28 120.466 7.408C121.447 7.536 122.173 7.664 122.642 7.792V30ZM117.394 32.24V23.408H136.658C136.957 23.8773 137.234 24.496 137.49 25.264C137.746 25.9893 137.874 26.8 137.874 27.696C137.874 29.2747 137.511 30.4267 136.786 31.152C136.103 31.8773 135.165 32.24 133.97 32.24H117.394ZM117.522 16.176V7.216H138.834C139.133 7.68534 139.389 8.304 139.602 9.072C139.858 9.84 139.986 10.672 139.986 11.568C139.986 13.1467 139.623 14.32 138.898 15.088C138.215 15.8133 137.277 16.176 136.082 16.176H117.522ZM111.57 27.248H122.77V45.936C122.301 46.064 121.575 46.192 120.594 46.32C119.613 46.448 118.61 46.512 117.586 46.512C115.367 46.512 113.81 46.128 112.914 45.36C112.018 44.5493 111.57 43.1627 111.57 41.2V27.248Z" fill="#4D5462"/>
<path d="M82.141 35.312L81.757 28.144L96.541 25.712C96.4557 24.8587 96.029 24.0053 95.261 23.152C94.493 22.2987 93.2983 21.872 91.677 21.872C89.9703 21.872 88.541 22.4267 87.389 23.536C86.2797 24.6453 85.6823 26.224 85.597 28.272L85.981 33.648C86.4077 35.6107 87.3677 36.976 88.861 37.744C90.397 38.512 92.1037 38.896 93.981 38.896C95.773 38.896 97.4797 38.6613 99.101 38.192C100.722 37.7227 102.024 37.2107 103.005 36.656C103.688 37.0827 104.264 37.68 104.733 38.448C105.202 39.216 105.437 40.0267 105.437 40.88C105.437 42.288 104.904 43.4613 103.837 44.4C102.813 45.296 101.384 45.9573 99.549 46.384C97.7143 46.8107 95.6023 47.024 93.213 47.024C89.885 47.024 86.877 46.4053 84.189 45.168C81.5437 43.888 79.4317 41.9893 77.853 39.472C76.317 36.9547 75.549 33.7973 75.549 30C75.549 27.184 75.997 24.752 76.893 22.704C77.8317 20.656 79.069 18.992 80.605 17.712C82.141 16.432 83.8477 15.4933 85.725 14.896C87.645 14.256 89.6077 13.936 91.613 13.936C94.6423 13.936 97.2877 14.5333 99.549 15.728C101.81 16.88 103.581 18.48 104.861 20.528C106.141 22.5333 106.781 24.8587 106.781 27.504C106.781 28.9547 106.376 30.064 105.565 30.832C104.754 31.6 103.624 32.0907 102.173 32.304L82.141 35.312Z" fill="#00A6A1"/>
<path d="M72.865 30.448C72.865 33.8613 72.161 36.8053 70.753 39.28C69.3876 41.7547 67.4463 43.6747 64.929 45.04C62.4543 46.3627 59.5103 47.024 56.097 47.024C52.7263 47.024 49.7823 46.3627 47.265 45.04C44.7476 43.7173 42.785 41.8187 41.377 39.344C40.0116 36.8693 39.329 33.904 39.329 30.448C39.329 27.0773 40.033 24.1547 41.441 21.68C42.849 19.2053 44.8116 17.3067 47.329 15.984C49.8463 14.6187 52.769 13.936 56.097 13.936C59.4676 13.936 62.3903 14.6187 64.865 15.984C67.3823 17.3493 69.345 19.2693 70.753 21.744C72.161 24.2187 72.865 27.12 72.865 30.448ZM56.097 22.448C54.3476 22.448 52.961 23.152 51.937 24.56C50.9556 25.9253 50.465 27.888 50.465 30.448C50.465 33.0933 50.9556 35.0987 51.937 36.464C52.9183 37.8293 54.305 38.512 56.097 38.512C57.889 38.512 59.2756 37.8293 60.257 36.464C61.2383 35.056 61.729 33.0507 61.729 30.448C61.729 27.9307 61.217 25.968 60.193 24.56C59.2116 23.152 57.8463 22.448 56.097 22.448Z" fill="#00A6A1"/>
<path d="M24.864 26.736C24.864 24.176 24.4586 22.0427 23.648 20.336C22.8373 18.6293 21.6853 17.3493 20.192 16.496C18.7413 15.6 17.0133 15.152 15.008 15.152C14.4106 15.152 13.792 15.1733 13.152 15.216C12.5546 15.2587 11.936 15.3227 11.296 15.408V37.68C11.7653 37.7653 12.3413 37.8507 13.024 37.936C13.7493 37.9787 14.3893 38 14.944 38C17.8453 38 20.2133 37.0613 22.048 35.184C23.9253 33.3067 24.864 30.4907 24.864 26.736ZM36.384 26.544C36.384 31.1093 35.488 34.9067 33.696 37.936C31.904 40.9653 29.3866 43.248 26.144 44.784C22.944 46.2773 19.1893 47.024 14.88 47.024C13.4293 47.024 11.616 46.9173 9.43997 46.704C7.30664 46.4907 5.38664 46.064 3.67997 45.424C1.33331 44.528 0.159973 42.9707 0.159973 40.752V10.864C0.159973 9.96799 0.415973 9.28532 0.927973 8.81599C1.43997 8.30399 2.10131 7.89866 2.91197 7.59999C4.74664 7.00266 6.68797 6.61866 8.73597 6.44799C10.784 6.23466 12.6186 6.12799 14.24 6.12799C18.6773 6.12799 22.5386 6.87466 25.824 8.36799C29.152 9.81866 31.7333 12.0587 33.568 15.088C35.4453 18.0747 36.384 21.8933 36.384 26.544Z" fill="#00A6A1"/>
</svg>
