<svg width="24" height="24" viewBox="0 0 24 24" fill="none" xmlns="http://www.w3.org/2000/svg">
<path d="M12.0276 7.1799C9.46555 7.1799 7.39902 9.24643 7.39902 11.8084C7.39902 14.3705 9.46555 16.437 12.0276 16.437C14.5896 16.437 16.6561 14.3705 16.6561 11.8084C16.6561 9.24643 14.5896 7.1799 12.0276 7.1799ZM12.0276 14.8176C10.3719 14.8176 9.0184 13.4681 9.0184 11.8084C9.0184 10.1488 10.3679 8.79929 12.0276 8.79929C13.6872 8.79929 15.0367 10.1488 15.0367 11.8084C15.0367 13.4681 13.6832 14.8176 12.0276 14.8176ZM17.925 6.99057C17.925 7.59079 17.4416 8.07016 16.8454 8.07016C16.2452 8.07016 15.7658 7.58676 15.7658 6.99057C15.7658 6.39438 16.2492 5.91098 16.8454 5.91098C17.4416 5.91098 17.925 6.39438 17.925 6.99057ZM20.9906 8.08628C20.9221 6.64011 20.5918 5.3591 19.5323 4.30368C18.4769 3.24826 17.1959 2.91794 15.7497 2.84543C14.2593 2.76083 9.79184 2.76083 8.30136 2.84543C6.85922 2.91391 5.57822 3.24423 4.51877 4.29965C3.45932 5.35507 3.13303 6.63608 3.06052 8.08225C2.97592 9.57273 2.97592 14.0401 3.06052 15.5306C3.129 16.9768 3.45932 18.2578 4.51877 19.3132C5.57822 20.3686 6.85519 20.699 8.30136 20.7715C9.79184 20.8561 14.2593 20.8561 15.7497 20.7715C17.1959 20.703 18.4769 20.3727 19.5323 19.3132C20.5877 18.2578 20.9181 16.9768 20.9906 15.5306C21.0752 14.0401 21.0752 9.57676 20.9906 8.08628ZM19.065 17.1299C18.7508 17.9194 18.1426 18.5277 17.349 18.8459C16.1606 19.3172 13.3408 19.2085 12.0276 19.2085C10.7143 19.2085 7.89047 19.3132 6.70615 18.8459C5.9166 18.5317 5.30832 17.9234 4.99008 17.1299C4.51877 15.9415 4.62753 13.1217 4.62753 11.8084C4.62753 10.4952 4.5228 7.67136 4.99008 6.48703C5.30429 5.69748 5.91257 5.0892 6.70615 4.77097C7.8945 4.29965 10.7143 4.40842 12.0276 4.40842C13.3408 4.40842 16.1646 4.30368 17.349 4.77097C18.1385 5.08518 18.7468 5.69345 19.065 6.48703C19.5364 7.67539 19.4276 10.4952 19.4276 11.8084C19.4276 13.1217 19.5364 15.9455 19.065 17.1299Z" fill="currentColor"/>
</svg>
