<svg width="24" height="24" viewBox="0 0 24 24" fill="none" xmlns="http://www.w3.org/2000/svg">
<path d="M7.58143 18.8573H4.26429V8.17517H7.58143V18.8573ZM5.92107 6.71802C4.86036 6.71802 4 5.83945 4 4.77874C4 4.26924 4.2024 3.78061 4.56267 3.42033C4.92294 3.06006 5.41157 2.85767 5.92107 2.85767C6.43057 2.85767 6.9192 3.06006 7.27947 3.42033C7.63974 3.78061 7.84214 4.26924 7.84214 4.77874C7.84214 5.83945 6.98143 6.71802 5.92107 6.71802ZM19.9964 18.8573H16.6864V13.6573C16.6864 12.418 16.6614 10.8287 14.9618 10.8287C13.2371 10.8287 12.9729 12.1752 12.9729 13.568V18.8573H9.65929V8.17517H12.8407V9.63231H12.8871C13.33 8.79302 14.4118 7.90731 16.0257 7.90731C19.3829 7.90731 20 10.118 20 12.9895V18.8573H19.9964Z" fill="currentColor"/>
</svg>
