<svg width="24" height="24" viewBox="0 0 24 24" fill="none" xmlns="http://www.w3.org/2000/svg">
<path fill-rule="evenodd" clip-rule="evenodd" d="M21.0553 5.91664C21.3711 6.23245 21.5986 6.62549 21.7153 7.05661C22.387 9.76052 22.2318 14.031 21.7283 16.8392C21.6117 17.2703 21.3841 17.6634 21.0683 17.9792C20.7525 18.295 20.3595 18.5226 19.9283 18.6392C18.3501 19.0697 11.9979 19.0696 11.9979 19.0696C11.9979 19.0696 5.64573 19.0697 4.06747 18.6392C3.63635 18.5226 3.24331 18.295 2.9275 17.9792C2.61169 17.6634 2.38413 17.2703 2.26747 16.8392C1.59181 14.147 1.77703 9.874 2.25442 7.06965C2.37108 6.63853 2.59865 6.2455 2.91446 5.92969C3.23027 5.61388 3.6233 5.38631 4.05442 5.26965C5.63268 4.83922 11.9849 4.82617 11.9849 4.82617C11.9849 4.82617 18.337 4.82617 19.9153 5.25661C20.3464 5.37327 20.7394 5.60083 21.0553 5.91664ZM15.2328 11.9479L9.96319 15.0001V8.89576L15.2328 11.9479Z" fill="currentColor"/>
</svg>
